<?xml version="1.0" encoding="UTF-8" standalone="no"?>
<svg
   xmlns:dc="http://purl.org/dc/elements/1.1/"
   xmlns:cc="http://creativecommons.org/ns#"
   xmlns:rdf="http://www.w3.org/1999/02/22-rdf-syntax-ns#"
   xmlns:svg="http://www.w3.org/2000/svg"
   xmlns="http://www.w3.org/2000/svg"
   xmlns:sodipodi="http://sodipodi.sourceforge.net/DTD/sodipodi-0.dtd"
   xmlns:inkscape="http://www.inkscape.org/namespaces/inkscape"
   inkscape:version="1.0 (4035a4f, 2020-05-01)"
   sodipodi:docname="facebook - negative.svg"
   id="svg842"
   version="1.1"
   fill="none"
   viewBox="0 0 16 16"
   height="16"
   width="16">
  <metadata
     id="metadata846">
    <rdf:RDF>
      <cc:Work
         rdf:about="">
        <dc:format>image/svg+xml</dc:format>
        <dc:type
           rdf:resource="http://purl.org/dc/dcmitype/StillImage" />
      </cc:Work>
    </rdf:RDF>
  </metadata>
  <sodipodi:namedview
     inkscape:current-layer="svg842"
     inkscape:window-maximized="0"
     inkscape:window-y="25"
     inkscape:window-x="425"
     inkscape:cy="9.7836748"
     inkscape:cx="10.016847"
     inkscape:zoom="13.236359"
     showgrid="false"
     id="namedview844"
     inkscape:window-height="480"
     inkscape:window-width="852"
     inkscape:pageshadow="2"
     inkscape:pageopacity="0"
     guidetolerance="10"
     gridtolerance="10"
     objecttolerance="10"
     borderopacity="1"
     bordercolor="#666666"
     pagecolor="#ffffff" />
  <g
     style="fill:#ececec;fill-opacity:1;fill-rule:nonzero"
     id="g835"
     clip-path="url(#clip0_506_39)">
    <path
       style="fill:#ececec;fill-opacity:1;fill-rule:nonzero"
       id="path833"
       fill="#27272D"
       d="M16 8C16 3.58172 12.4183 0 8 0C3.58172 0 0 3.58172 0 8C0 11.993 2.92547 15.3027 6.75 15.9028V10.3125H4.71875V8H6.75V6.2375C6.75 4.2325 7.94438 3.125 9.77172 3.125C10.6467 3.125 11.5625 3.28125 11.5625 3.28125V5.25H10.5538C9.56 5.25 9.25 5.86672 9.25 6.5V8H11.4688L11.1141 10.3125H9.25V15.9028C13.0745 15.3027 16 11.993 16 8Z" />
  </g>
  <defs
     id="defs840">
    <clipPath
       id="clip0_506_39">
      <rect
         id="rect837"
         fill="white"
         height="16"
         width="16" />
    </clipPath>
  </defs>
</svg>
