<?xml version="1.0" encoding="UTF-8" standalone="no"?>
<svg
   xmlns:dc="http://purl.org/dc/elements/1.1/"
   xmlns:cc="http://creativecommons.org/ns#"
   xmlns:rdf="http://www.w3.org/1999/02/22-rdf-syntax-ns#"
   xmlns:svg="http://www.w3.org/2000/svg"
   xmlns="http://www.w3.org/2000/svg"
   xmlns:sodipodi="http://sodipodi.sourceforge.net/DTD/sodipodi-0.dtd"
   xmlns:inkscape="http://www.inkscape.org/namespaces/inkscape"
   inkscape:version="1.0 (4035a4f, 2020-05-01)"
   sodipodi:docname="linkedin - negative.svg"
   id="svg2002"
   version="1.1"
   fill="none"
   viewBox="0 0 16 16"
   height="16"
   width="16">
  <metadata
     id="metadata2006">
    <rdf:RDF>
      <cc:Work
         rdf:about="">
        <dc:format>image/svg+xml</dc:format>
        <dc:type
           rdf:resource="http://purl.org/dc/dcmitype/StillImage" />
      </cc:Work>
    </rdf:RDF>
  </metadata>
  <sodipodi:namedview
     inkscape:current-layer="svg2002"
     inkscape:window-maximized="0"
     inkscape:window-y="25"
     inkscape:window-x="594"
     inkscape:cy="8"
     inkscape:cx="8"
     inkscape:zoom="42.8125"
     showgrid="false"
     id="namedview2004"
     inkscape:window-height="480"
     inkscape:window-width="852"
     inkscape:pageshadow="2"
     inkscape:pageopacity="0"
     guidetolerance="10"
     gridtolerance="10"
     objecttolerance="10"
     borderopacity="1"
     bordercolor="#666666"
     pagecolor="#ffffff" />
  <g
     transform="scale(0.9994125,0.99980625)"
     style="fill:#ececec"
     id="g1995"
     clip-path="url(#clip0_506_48)">
    <path
       style="fill:#ececec"
       id="path1993"
       fill="#27272D"
       d="M 14.8156,0 H 1.18125 C 0.528125,0 0,0.515625 0,1.15313 V 14.8438 C 0,15.4813 0.528125,16 1.18125,16 H 14.8156 C 15.4688,16 16,15.4813 16,14.8469 V 1.15313 C 16,0.515625 15.4688,0 14.8156,0 Z M 4.74687,13.6344 H 2.37188 V 5.99687 H 4.74687 Z M 3.55938,4.95625 c -0.7625,0 -1.37813,-0.61563 -1.37813,-1.375 0,-0.75937 0.61563,-1.375 1.37813,-1.375 0.75937,0 1.37499,0.61563 1.37499,1.375 0,0.75625 -0.61562,1.375 -1.37499,1.375 z M 13.6344,13.6344 H 11.2625 V 9.92188 c 0,-0.88438 -0.0156,-2.02501 -1.2344,-2.02501 -1.23435,0 -1.42185,0.96563 -1.42185,1.96251 V 13.6344 H 6.2375 V 5.99687 h 2.275 v 1.04376 h 0.03125 c 0.31563,-0.6 1.09063,-1.23438 2.24375,-1.23438 2.4031,0 2.8469,1.58125 2.8469,3.6375 z" />
  </g>
  <defs
     id="defs2000">
    <clipPath
       id="clip0_506_48">
      <rect
         id="rect1997"
         fill="white"
         height="16"
         width="16" />
    </clipPath>
  </defs>
</svg>
